<svg width="103" height="103" viewBox="0 0 103 103" fill="none" xmlns="http://www.w3.org/2000/svg">
<circle cx="51.5" cy="51.5" r="51.5" fill="#221E41"/>
<path d="M56.9933 73.13H45.114V68.6667H56.9933V73.13ZM78.9667 53.354H23.896V84.254H31.8613V60.152H70.7267V75.4647C70.7267 76.2887 70.452 76.4947 69.422 76.5634C68.6667 76.632 66.538 76.632 64.2033 76.5634V63.242H37.9727V81.7134H45.114V78.6234H62.83C63.5853 80.4087 64.2033 82.5374 64.4093 84.1167C69.3533 84.1167 72.9927 84.048 75.5333 82.812C78.2113 81.576 78.9667 79.3787 78.9667 75.602V53.354ZM61.594 44.9767H40.17V40.788H61.594V44.9767ZM32.4107 35.3634V50.47H69.9027V35.3634H32.4107ZM54.8647 25.8187V20.0507H46.556V25.8187H21.1493V32.754H81.164V25.8187H54.8647Z" fill="#A599FF" fill-opacity="0.5"/>
<path d="M73.62 57.68V56.8753C72.7594 57.3336 71.8095 57.6744 70.7701 57.8979C69.7307 58.1326 68.7863 58.25 67.9369 58.25C66.0928 58.25 64.5952 57.7638 63.4441 56.7915C62.2929 55.808 61.7173 54.7239 61.7173 53.5392C61.7173 52.0975 62.4494 50.7619 63.9135 49.5326C65.3887 48.292 67.4228 47.6717 70.0157 47.6717C71.0551 47.6717 72.2565 47.7835 73.62 48.007V47.1855C73.62 46.6714 73.3965 46.2523 72.9494 45.9282C72.5136 45.6041 71.6753 45.4421 70.4348 45.4421C69.4177 45.4421 68.099 45.6432 66.4784 46.0456C65.8749 46.1909 65.4055 46.2635 65.0702 46.2635C64.612 46.2635 64.2208 46.1015 63.8967 45.7773C63.5838 45.4421 63.4273 45.0174 63.4273 44.5033C63.4273 44.2127 63.4832 43.9612 63.5949 43.7489C63.7067 43.5365 63.8632 43.3689 64.0643 43.2459C64.2655 43.1118 64.6846 42.9553 65.3217 42.7765C66.1711 42.5418 67.0372 42.3574 67.9201 42.2233C68.8031 42.078 69.6022 42.0054 70.3174 42.0054C72.4521 42.0054 74.1062 42.4692 75.2797 43.3968C76.4644 44.3133 77.0567 45.5706 77.0567 47.1688V54.2433H77.6434C78.4705 54.2433 79.0572 54.4054 79.4037 54.7295C79.7613 55.0424 79.9402 55.4559 79.9402 55.9701C79.9402 56.473 79.7613 56.8865 79.4037 57.2106C79.0572 57.5235 78.4705 57.68 77.6434 57.68H73.62ZM73.62 51.5275C72.2453 51.2593 70.9768 51.1252 69.8145 51.1252C68.4175 51.1252 67.216 51.466 66.2102 52.1478C65.5843 52.5837 65.2714 53.0251 65.2714 53.4722C65.2714 53.7963 65.4223 54.0589 65.724 54.2601C66.2828 54.6289 67.0484 54.8133 68.0207 54.8133C68.8478 54.8133 69.781 54.6513 70.8204 54.3271C71.8709 54.003 72.8041 53.5616 73.62 53.0028V51.5275Z" fill="white"/>
<path d="M74.3073 62.7073V61.6847H78.3308C79.1578 61.6847 79.7446 61.8467 80.091 62.1708C80.4487 62.4838 80.6275 62.8973 80.6275 63.4114C80.6275 63.9143 80.4487 64.3278 80.091 64.652C79.7446 64.9649 79.1578 65.1214 78.3308 65.1214H77.744V77.6275C77.744 78.8346 77.487 79.8851 76.9729 80.7792C76.4699 81.6845 75.6932 82.4613 74.6426 83.1095C73.5921 83.7577 72.4074 84.0818 71.0886 84.0818H67.1993C66.3722 84.0818 65.7799 83.9198 65.4223 83.5956C65.0758 83.2827 64.9026 82.8748 64.9026 82.3718C64.9026 81.8577 65.0758 81.4386 65.4223 81.1145C65.7799 80.8016 66.3722 80.6451 67.1993 80.6451H70.988C72.0386 80.6451 72.8544 80.3601 73.4356 79.7901C74.0168 79.2202 74.3073 78.4993 74.3073 77.6275V75.9511C73.5474 76.4429 72.7706 76.8117 71.9771 77.0576C71.1948 77.3034 70.3901 77.4264 69.563 77.4264C67.2272 77.4264 65.2714 76.6496 63.6955 75.0961C62.1197 73.5315 61.3318 71.6036 61.3318 69.3124C61.3318 67.0101 62.1197 65.0822 63.6955 63.5288C65.2714 61.9641 67.2272 61.1817 69.563 61.1817C70.4348 61.1817 71.2618 61.3103 72.0442 61.5673C72.8377 61.8132 73.5921 62.1932 74.3073 62.7073ZM74.2906 69.2957C74.2906 68.0328 73.8212 66.9375 72.8824 66.0099C71.9547 65.0822 70.8371 64.6184 69.5295 64.6184C68.2219 64.6184 67.0987 65.0822 66.1599 66.0099C65.2323 66.9375 64.7684 68.0328 64.7684 69.2957C64.7684 70.5698 65.2323 71.6706 66.1599 72.5982C67.0987 73.5147 68.2219 73.9729 69.5295 73.9729C70.8371 73.9729 71.9547 73.5147 72.8824 72.5982C73.8212 71.6706 74.2906 70.5698 74.2906 69.2957Z" fill="white"/>
</svg>
