<svg width="66" height="66" viewBox="0 0 66 66" fill="none" xmlns="http://www.w3.org/2000/svg">
<circle cx="32.6648" cy="33.3352" r="32.6648" fill="#221E41"/>
<path d="M36.1491 47.0544H28.6144V44.2235H36.1491V47.0544ZM50.0861 34.5111H15.1565V54.11H20.2086V38.8229H44.8597V48.5352C44.8597 49.0579 44.6855 49.1885 44.0322 49.2321C43.5531 49.2756 42.2029 49.2756 40.7221 49.2321V40.7828H24.0849V52.4986H28.6144V50.5387H39.8511C40.3302 51.6711 40.7221 53.0212 40.8528 54.0229C43.9886 54.0229 46.2969 53.9794 47.9084 53.1954C49.607 52.4115 50.0861 51.0178 50.0861 48.6223V34.5111ZM39.0671 29.1977H25.4786V26.5409H39.0671V29.1977ZM20.557 23.1002V32.6819H44.3371V23.1002H20.557ZM34.7989 17.0463V13.3879H29.529V17.0463H13.4143V21.4452H51.4798V17.0463H34.7989Z" fill="#A599FF" fill-opacity="0.5"/>
<path d="M46.6948 37.255V36.7446C46.149 37.0352 45.5465 37.2514 44.8872 37.3932C44.228 37.5421 43.629 37.6165 43.0902 37.6165C41.9206 37.6165 40.9707 37.3081 40.2406 36.6914C39.5104 36.0676 39.1453 35.38 39.1453 34.6286C39.1453 33.7142 39.6097 32.8671 40.5383 32.0873C41.474 31.3005 42.7641 30.907 44.4087 30.907C45.068 30.907 45.83 30.9779 46.6948 31.1197V30.5987C46.6948 30.2726 46.5531 30.0068 46.2695 29.8012C45.9931 29.5956 45.4614 29.4928 44.6746 29.4928C44.0295 29.4928 43.193 29.6204 42.1651 29.8756C41.7824 29.9678 41.4846 30.0139 41.272 30.0139C40.9813 30.0139 40.7332 29.9111 40.5276 29.7055C40.3292 29.4928 40.2299 29.2235 40.2299 28.8974C40.2299 28.7131 40.2654 28.5536 40.3363 28.4189C40.4071 28.2842 40.5064 28.1779 40.634 28.0999C40.7616 28.0148 41.0274 27.9156 41.4315 27.8022C41.9702 27.6533 42.5196 27.5363 43.0796 27.4513C43.6396 27.3591 44.1464 27.313 44.6001 27.313C45.9541 27.313 47.0032 27.6072 47.7475 28.1956C48.4989 28.7769 48.8746 29.5744 48.8746 30.588V35.0752H49.2468C49.7713 35.0752 50.1435 35.178 50.3633 35.3836C50.5901 35.582 50.7035 35.8443 50.7035 36.1704C50.7035 36.4894 50.5901 36.7517 50.3633 36.9573C50.1435 37.1557 49.7713 37.255 49.2468 37.255H46.6948ZM46.6948 33.3526C45.8229 33.1825 45.0184 33.0974 44.2811 33.0974C43.395 33.0974 42.633 33.3137 41.995 33.7461C41.598 34.0225 41.3996 34.3025 41.3996 34.5861C41.3996 34.7917 41.4953 34.9582 41.6867 35.0858C42.0411 35.3198 42.5267 35.4367 43.1434 35.4367C43.668 35.4367 44.2599 35.3339 44.9191 35.1284C45.5855 34.9228 46.1774 34.6428 46.6948 34.2884V33.3526Z" fill="white"/>
<path d="M47.1308 40.4436V39.795H49.6827C50.2073 39.795 50.5795 39.8978 50.7992 40.1034C51.026 40.3019 51.1395 40.5641 51.1395 40.8902C51.1395 41.2092 51.026 41.4715 50.7992 41.6771C50.5795 41.8756 50.2073 41.9748 49.6827 41.9748H49.3106V49.9071C49.3106 50.6727 49.1475 51.339 48.8215 51.9061C48.5025 52.4803 48.0098 52.973 47.3435 53.3841C46.6771 53.7952 45.9257 54.0008 45.0892 54.0008H42.6224C42.0978 54.0008 41.7221 53.898 41.4953 53.6925C41.2755 53.494 41.1656 53.2352 41.1656 52.9162C41.1656 52.5902 41.2755 52.3243 41.4953 52.1188C41.7221 51.9203 42.0978 51.821 42.6224 51.821H45.0254C45.6918 51.821 46.2093 51.6403 46.5779 51.2787C46.9465 50.9172 47.1308 50.46 47.1308 49.9071V48.8438C46.6488 49.1557 46.1561 49.3896 45.6528 49.5456C45.1566 49.7015 44.6462 49.7795 44.1216 49.7795C42.6401 49.7795 41.3996 49.2868 40.4001 48.3015C39.4005 47.3091 38.9008 46.0863 38.9008 44.6331C38.9008 43.1728 39.4005 41.95 40.4001 40.9647C41.3996 39.9722 42.6401 39.476 44.1216 39.476C44.6746 39.476 45.1991 39.5575 45.6953 39.7206C46.1986 39.8765 46.6771 40.1176 47.1308 40.4436ZM47.1202 44.6224C47.1202 43.8214 46.8224 43.1267 46.227 42.5384C45.6386 41.95 44.9297 41.6558 44.1004 41.6558C43.271 41.6558 42.5586 41.95 41.9631 42.5384C41.3748 43.1267 41.0806 43.8214 41.0806 44.6224C41.0806 45.4306 41.3748 46.1288 41.9631 46.7172C42.5586 47.2984 43.271 47.5891 44.1004 47.5891C44.9297 47.5891 45.6386 47.2984 46.227 46.7172C46.8224 46.1288 47.1202 45.4306 47.1202 44.6224Z" fill="white"/>
</svg>
