<svg width="66" height="66" viewBox="0 0 66 66" fill="none" xmlns="http://www.w3.org/2000/svg">
<circle cx="33.3352" cy="33.3352" r="32.6648" fill="#F2F2F2"/>
<path d="M36.949 47.0842H29.4143V44.2532H36.949V47.0842ZM50.886 34.5409H15.9564V54.1398H21.0086V38.8526H45.6596V48.565C45.6596 49.0876 45.4854 49.2183 44.8321 49.2618C44.353 49.3054 43.0029 49.3054 41.5221 49.2618V40.8125H24.8848V52.5283H29.4143V50.5684H40.651C41.1301 51.7008 41.5221 53.0509 41.6527 54.0527C44.7886 54.0527 47.0969 54.0091 48.7083 53.2252C50.4069 52.4412 50.886 51.0475 50.886 48.6521V34.5409ZM39.8671 29.2274H26.2785V26.5706H39.8671V29.2274ZM21.357 23.1299V32.7116H45.137V23.1299H21.357ZM35.5988 17.0761V13.4176H30.3289V17.0761H14.2143V21.4749H52.2797V17.0761H35.5988Z" fill="#C8ABC9"/>
<path d="M47.3651 37.255V36.7446C46.8193 37.0352 46.2168 37.2514 45.5575 37.3932C44.8983 37.5421 44.2993 37.6165 43.7605 37.6165C42.5909 37.6165 41.641 37.3081 40.9109 36.6914C40.1807 36.0676 39.8156 35.38 39.8156 34.6286C39.8156 33.7142 40.28 32.8671 41.2086 32.0873C42.1443 31.3005 43.4344 30.907 45.079 30.907C45.7383 30.907 46.5003 30.9779 47.3651 31.1197V30.5987C47.3651 30.2726 47.2234 30.0068 46.9398 29.8012C46.6633 29.5956 46.1317 29.4928 45.3448 29.4928C44.6998 29.4928 43.8633 29.6204 42.8354 29.8756C42.4526 29.9678 42.1549 30.0139 41.9423 30.0139C41.6516 30.0139 41.4035 29.9111 41.1979 29.7055C40.9995 29.4928 40.9002 29.2235 40.9002 28.8974C40.9002 28.7131 40.9357 28.5536 41.0065 28.4189C41.0774 28.2842 41.1767 28.1779 41.3043 28.0999C41.4319 28.0148 41.6977 27.9156 42.1018 27.8022C42.6405 27.6533 43.1899 27.5363 43.7499 27.4513C44.3099 27.3591 44.8167 27.313 45.2704 27.313C46.6244 27.313 47.6735 27.6072 48.4178 28.1956C49.1692 28.7769 49.5449 29.5744 49.5449 30.588V35.0752H49.9171C50.4416 35.0752 50.8138 35.178 51.0335 35.3836C51.2604 35.582 51.3738 35.8443 51.3738 36.1704C51.3738 36.4894 51.2604 36.7517 51.0335 36.9573C50.8138 37.1557 50.4416 37.255 49.9171 37.255H47.3651ZM47.3651 33.3526C46.4932 33.1825 45.6887 33.0974 44.9514 33.0974C44.0653 33.0974 43.3033 33.3137 42.6653 33.7461C42.2683 34.0225 42.0699 34.3025 42.0699 34.5861C42.0699 34.7917 42.1656 34.9582 42.357 35.0858C42.7114 35.3198 43.197 35.4367 43.8137 35.4367C44.3382 35.4367 44.9302 35.3339 45.5894 35.1284C46.2557 34.9228 46.8477 34.6428 47.3651 34.2884V33.3526Z" fill="black"/>
<path d="M47.8011 40.4436V39.795H50.3531C50.8776 39.795 51.2498 39.8978 51.4695 40.1034C51.6964 40.3018 51.8098 40.5641 51.8098 40.8902C51.8098 41.2092 51.6964 41.4715 51.4695 41.6771C51.2498 41.8755 50.8776 41.9748 50.3531 41.9748H49.9809V49.9071C49.9809 50.6727 49.8179 51.339 49.4918 51.9061C49.1728 52.4803 48.6801 52.9729 48.0138 53.3841C47.3474 53.7952 46.596 54.0008 45.7596 54.0008H43.2927C42.7681 54.0008 42.3924 53.898 42.1656 53.6924C41.9458 53.494 41.836 53.2352 41.836 52.9162C41.836 52.5901 41.9458 52.3243 42.1656 52.1187C42.3924 51.9203 42.7681 51.821 43.2927 51.821H45.6958C46.3621 51.821 46.8796 51.6403 47.2482 51.2787C47.6168 50.9172 47.8011 50.46 47.8011 49.9071V48.8438C47.3191 49.1557 46.8264 49.3896 46.3231 49.5455C45.8269 49.7015 45.3165 49.7795 44.792 49.7795C43.3104 49.7795 42.0699 49.2868 41.0704 48.3015C40.0709 47.3091 39.5711 46.0862 39.5711 44.6331C39.5711 43.1728 40.0709 41.95 41.0704 40.9646C42.0699 39.9722 43.3104 39.476 44.792 39.476C45.3449 39.476 45.8694 39.5575 46.3656 39.7206C46.8689 39.8765 47.3474 40.1175 47.8011 40.4436ZM47.7905 44.6224C47.7905 43.8214 47.4928 43.1267 46.8973 42.5383C46.3089 41.95 45.6001 41.6558 44.7707 41.6558C43.9413 41.6558 43.2289 41.95 42.6334 42.5383C42.0451 43.1267 41.7509 43.8214 41.7509 44.6224C41.7509 45.4305 42.0451 46.1288 42.6334 46.7171C43.2289 47.2984 43.9413 47.5891 44.7707 47.5891C45.6001 47.5891 46.3089 47.2984 46.8973 46.7171C47.4928 46.1288 47.7905 45.4305 47.7905 44.6224Z" fill="black"/>
</svg>
