<svg width="82" height="82" viewBox="0 0 82 82" fill="none" xmlns="http://www.w3.org/2000/svg">
<circle cx="41" cy="41" r="41" fill="#F2F2F2"/>
<path d="M45.3733 58.22H35.916V54.6667H45.3733V58.22ZM62.8667 42.476H19.024V67.076H25.3653V47.888H56.3067V60.0787C56.3067 60.7347 56.088 60.8987 55.268 60.9533C54.6667 61.008 52.972 61.008 51.1133 60.9533V50.348H30.2307V65.0533H35.916V62.5933H50.02C50.6213 64.0147 51.1133 65.7093 51.2773 66.9667C55.2133 66.9667 58.1107 66.912 60.1333 65.928C62.2653 64.944 62.8667 63.1947 62.8667 60.188V42.476ZM49.036 35.8067H31.98V32.472H49.036V35.8067ZM25.8027 28.1533V40.18H55.6507V28.1533H25.8027ZM43.6787 20.5547V15.9627H37.064V20.5547H16.8373V26.076H64.616V20.5547H43.6787Z" fill="#C8ABC9"/>
<path d="M58.6101 45.92V45.2794C57.925 45.6442 57.1687 45.9156 56.3412 46.0935C55.5137 46.2804 54.7619 46.3738 54.0857 46.3738C52.6176 46.3738 51.4253 45.9867 50.5088 45.2126C49.5924 44.4297 49.1342 43.5666 49.1342 42.6235C49.1342 41.4757 49.7169 40.4124 50.8825 39.4337C52.057 38.446 53.6764 37.9522 55.7406 37.9522C56.5681 37.9522 57.5246 38.0412 58.6101 38.2192V37.5652C58.6101 37.1559 58.4321 36.8222 58.0762 36.5642C57.7292 36.3062 57.0619 36.1772 56.0743 36.1772C55.2646 36.1772 54.2147 36.3373 52.9245 36.6576C52.4441 36.7733 52.0704 36.8311 51.8034 36.8311C51.4386 36.8311 51.1272 36.7021 50.8692 36.4441C50.62 36.1772 50.4955 35.8391 50.4955 35.4298C50.4955 35.1984 50.54 34.9982 50.6289 34.8292C50.7179 34.6601 50.8425 34.5267 51.0026 34.4288C51.1628 34.322 51.4965 34.1975 52.0036 34.0551C52.6798 33.8682 53.3694 33.7214 54.0723 33.6147C54.7752 33.499 55.4114 33.4412 55.9808 33.4412C57.6803 33.4412 58.9971 33.8104 59.9314 34.5489C60.8745 35.2785 61.3461 36.2795 61.3461 37.5518V43.184H61.8132C62.4716 43.184 62.9387 43.313 63.2146 43.571C63.4993 43.8202 63.6416 44.1494 63.6416 44.5587C63.6416 44.9591 63.4993 45.2883 63.2146 45.5463C62.9387 45.7954 62.4716 45.92 61.8132 45.92H58.6101ZM58.6101 41.0219C57.5157 40.8083 56.5058 40.7016 55.5804 40.7016C54.4682 40.7016 53.5118 40.973 52.711 41.5157C52.2127 41.8627 51.9636 42.2142 51.9636 42.5701C51.9636 42.8281 52.0837 43.0372 52.3239 43.1973C52.7688 43.491 53.3783 43.6378 54.1524 43.6378C54.8108 43.6378 55.5538 43.5088 56.3812 43.2507C57.2176 42.9927 57.9605 42.6412 58.6101 42.1964V41.0219Z" fill="black"/>
<path d="M59.1573 49.9223V49.1082H62.3604C63.0188 49.1082 63.486 49.2372 63.7618 49.4952C64.0465 49.7444 64.1889 50.0736 64.1889 50.4829C64.1889 50.8832 64.0465 51.2125 63.7618 51.4705C63.486 51.7196 63.0188 51.8442 62.3604 51.8442H61.8933V61.8006C61.8933 62.7615 61.6886 63.5979 61.2794 64.3097C60.879 65.0304 60.2606 65.6488 59.4242 66.1648C58.5878 66.6809 57.6447 66.9389 56.5948 66.9389H53.4984C52.84 66.9389 52.3684 66.8099 52.0837 66.5519C51.8079 66.3027 51.67 65.978 51.67 65.5776C51.67 65.1683 51.8079 64.8346 52.0837 64.5766C52.3684 64.3275 52.84 64.2029 53.4984 64.2029H56.5147C57.3511 64.2029 58.0006 63.976 58.4633 63.5222C58.926 63.0685 59.1573 62.4946 59.1573 61.8006V60.4659C58.5523 60.8574 57.9339 61.151 57.3021 61.3468C56.6793 61.5425 56.0387 61.6404 55.3803 61.6404C53.5207 61.6404 51.9636 61.022 50.709 59.7853C49.4545 58.5396 48.8272 57.0048 48.8272 55.1808C48.8272 53.3479 49.4545 51.813 50.709 50.5763C51.9636 49.3306 53.5207 48.7078 55.3803 48.7078C56.0743 48.7078 56.7327 48.8101 57.3555 49.0148C57.9873 49.2105 58.5878 49.513 59.1573 49.9223ZM59.1439 55.1674C59.1439 54.162 58.7702 53.29 58.0228 52.5515C57.2843 51.813 56.3946 51.4438 55.3536 51.4438C54.3126 51.4438 53.4184 51.813 52.671 52.5515C51.9325 53.29 51.5632 54.162 51.5632 55.1674C51.5632 56.1818 51.9325 57.0582 52.671 57.7967C53.4184 58.5263 54.3126 58.8911 55.3536 58.8911C56.3946 58.8911 57.2843 58.5263 58.0228 57.7967C58.7702 57.0582 59.1439 56.1818 59.1439 55.1674Z" fill="black"/>
</svg>
